<?xml version="1.0" encoding="utf-8"?>
<!-- Generator: Adobe Illustrator 24.1.2, SVG Export Plug-In . SVG Version: 6.00 Build 0)  -->
<svg version="1.1" id="Layer_1" xmlns="http://www.w3.org/2000/svg" xmlns:xlink="http://www.w3.org/1999/xlink" x="0px" y="0px"
	 viewBox="0 0 125.438 60" style="enable-background:new 0 0 125.438 60;" xml:space="preserve">
<style type="text/css">
	.st0{fill:#F7D114;}
	.st1{fill:#424243;}
</style>
<g>
	<g>
		<g>
			<g>
				<path class="st0" d="M50.399,7.838c1.547,1.206,2.864,2.704,4.368,3.971c0.468,0.394,1.218,0.673,1.825,0.65
					c11.689-0.451,23.368-0.466,35.014,0.801c7.847,0.853,15.572,2.292,22.975,5.149c0.021,0.008,0.043,0.017,0.064,0.025
					c0.252,0.097,0.502,0.197,0.752,0.298c0.25,0.101,0.499,0.205,0.747,0.31c0.248,0.105,0.495,0.213,0.741,0.323
					c0.246,0.11,0.492,0.222,0.736,0.336c0.245,0.114,0.489,0.231,0.732,0.349c0.244,0.119,0.486,0.24,0.728,0.364
					c0.242,0.124,0.484,0.25,0.724,0.379c0.241,0.129,0.482,0.261,0.72,0.395c0.24,0.135,0.48,0.272,0.717,0.411
					c0.24,0.14,0.478,0.283,0.715,0.428c0.239,0.146,0.476,0.295,0.712,0.445c0.238,0.152,0.475,0.307,0.71,0.464
					c0.238,0.158,0.474,0.319,0.709,0.482c0.237,0.165,0.473,0.332,0.707,0.502c0.118,0.086,0.236,0.172,0.353,0.258
					c0.059,0.044,0.118,0.087,0.177,0.131c0.029,0.022,0.059,0.044,0.088,0.066c0.027,0.02,0.056,0.049,0.085,0.063
					c-0.007-0.004-0.016-0.033-0.02-0.04c-0.115-0.232-0.215-0.497-0.408-0.677c-0.219-0.205-0.439-0.409-0.661-0.611
					c-0.222-0.202-0.446-0.401-0.676-0.594c-4.082-3.435-8.766-5.792-13.749-7.596C98.917,10.912,87.382,9.57,75.717,9.229
					C69.769,9.055,63.807,9.362,57.85,9.428c-0.524,0.006-1.201,0.02-1.551-0.274c-2.511-2.109-4.955-4.297-7.42-6.46
					c0.012-0.136,0.024-0.273,0.036-0.409c2.721,0,5.449-0.116,8.163,0.023c7.22,0.369,14.009,2.402,20.477,5.558
					C66.367,0.177,53.945-1.148,40.671,0.804c0.512,0.328,0.887,0.543,1.235,0.796C44.745,3.667,47.629,5.68,50.399,7.838z"/>
				<path class="st0" d="M113.344,25.659c-1.692-0.037-3.382-0.217-5.072-0.334c-0.001,0-0.002,0-0.003,0
					c-0.239-0.236-0.454-0.511-0.725-0.703c-3.525-2.502-7.417-4.034-11.665-4.545c-2.111-0.254-4.236-0.378-6.534-0.577
					c3.093,4.896,7.626,7.541,13.086,8.07c4.306,0.418,8.542-0.064,12.787-0.625c3.07-0.405,6.136-0.838,9.207-1.236
					C120.732,25.618,117.036,25.74,113.344,25.659z M95.691,22.471c4.421-0.123,8.523,1.236,12.571,2.854
					C103.829,25.505,99.578,24.839,95.691,22.471z"/>
				<path class="st0" d="M41.607,15.589c9.787-0.478,19.57-1.415,29.376-0.715c4.318,0.308,8.609,1.008,12.261,1.451
					c-3.594-1.354-8.079-2.192-12.63-2.684c-10.113-1.092-20.228-0.397-30.335,0.116c-9.218,0.468-18.403,0.277-27.566-0.85
					c-4.173-0.513-8.349-0.997-12.524-1.494c3.342,0.865,6.721,1.541,10.101,2.209C20.641,15.665,31.095,16.103,41.607,15.589z"/>
				<path class="st0" d="M31.93,4.027c5.803-0.28,10.925,1.293,15.419,4.7c0.093,0.067,0.185,0.139,0.278,0.213
					c0.238,0.184,0.472,0.372,0.703,0.565c0.127,0.106,0.264,0.201,0.383,0.317c0.527,0.513,1.013,1.112,1.462,1.693
					c0.075,0.097,0.148,0.194,0.22,0.293c0.025,0.034,0.153,0.265,0.186,0.262c0.369-0.034,0.738-0.066,1.107-0.091
					c0.179-0.012,0.36-0.022,0.538-0.037c0.256,0,0.513-0.036,0.767-0.072c0.064-0.009,0.13-0.019,0.185-0.053
					c-0.08-0.126-0.181-0.232-0.28-0.343c-0.093-0.106-0.189-0.21-0.283-0.316c-0.414-0.469-0.84-0.929-1.278-1.377
					c-0.428-0.438-0.868-0.865-1.32-1.278c-0.443-0.405-0.898-0.798-1.365-1.176c-0.459-0.371-0.93-0.728-1.413-1.068
					c-0.476-0.336-0.964-0.655-1.462-0.957c-0.494-0.299-0.999-0.58-1.515-0.841c-0.514-0.26-1.037-0.501-1.569-0.72
					c-0.534-0.22-1.077-0.419-1.626-0.596c-0.555-0.178-1.118-0.334-1.686-0.466c-0.578-0.135-1.161-0.246-1.748-0.333
					c-0.601-0.089-1.206-0.154-1.812-0.195c-0.625-0.042-1.252-0.059-1.879-0.052c-0.647,0.007-1.294,0.039-1.938,0.094
					C26.113,2.695,20.72,4.667,15.626,7.485c0.213-0.058,0.431-0.109,0.642-0.174C21.388,5.731,26.526,4.287,31.93,4.027z"/>
			</g>
			<g>
				<path class="st1" d="M122.504,36.093c-8.869,1.599-17.813,2.081-26.81,1.926c-1.087-0.019-1.46-0.341-1.634-1.437
					c-0.709-4.468-2.074-8.721-4.848-12.387c-2.436-3.222-5.459-5.315-9.231-5.854c0.013-0.494,0.024-0.866,0.041-1.269
					c-0.778-0.093-1.163-0.135-1.926-0.211c-0.034,0.418-0.054,0.8-0.081,1.34c-0.31,0-0.625,0.009-0.945,0.028
					c-0.336,0.02-0.669,0.062-0.999,0.117c0.051-0.73,0.08-1.167,0.135-1.657c-0.749-0.061-1.12-0.087-1.855-0.134
					c-0.067,0.492-0.1,0.918-0.167,1.68c0.602,0.07,0.966,0.116,1.487,0.187c-0.522,0.109-1.037,0.257-1.541,0.44
					c0.016-0.185,0.034-0.388,0.054-0.627c-0.742-0.087-1.108-0.125-1.831-0.194c-0.071,0.716-0.107,1.115-0.179,1.585
					c0.068,0.01,0.13,0.019,0.193,0.028c-1.289,0.688-2.493,1.565-3.576,2.511c0.589-0.086,1.076-0.28,1.623-0.472
					c3.011-1.057,6.011-1.585,9.08-0.458c3.247,1.192,6.003,3.165,7.57,6.217c0.714,1.391,1.253,2.866,1.702,4.361
					c0.491,1.633,0.951,3.28,1.222,4.966c0.079,0.491,0.147,0.984,0.209,1.478c0.271,2.163,2.103,3.805,4.283,3.848
					c10.372,0.206,20.435-0.952,29.944-4.69c0.61-0.24,1.015-0.825,1.015-1.48v-5.444c-0.577,1.258-1.124,2.6-1.365,3.996
					C123.897,35.514,123.533,35.908,122.504,36.093z"/>
				<path class="st1" d="M6.037,14.25c0,0.283,0,0.4,0,0.647c0.309,0.104,0.465,0.155,0.779,0.257
					c0.011-0.256,0.016-0.378,0.026-0.668C6.518,14.393,6.358,14.346,6.037,14.25z"/>
				<path class="st1" d="M6.79,15.823c0.305,0.11,0.459,0.163,0.771,0.27c0.017-0.297,0.027-0.424,0.046-0.689
					c-0.319-0.098-0.477-0.148-0.791-0.25C6.805,15.41,6.8,15.532,6.79,15.823z"/>
				<path class="st1" d="M7.654,14.715c-0.017,0.297-0.027,0.424-0.046,0.689c0.319,0.098,0.48,0.147,0.805,0.242
					c0.026-0.273,0.039-0.405,0.062-0.708C8.144,14.85,7.98,14.805,7.654,14.715z"/>
				<path class="st1" d="M8.35,16.354c0.319,0.103,0.48,0.154,0.807,0.254c0.027-0.31,0.043-0.446,0.074-0.727
					c-0.33-0.093-0.494-0.14-0.818-0.235C8.386,15.919,8.373,16.051,8.35,16.354z"/>
				<path class="st1" d="M9.304,15.154c-0.027,0.31-0.043,0.446-0.074,0.727c0.33,0.093,0.497,0.138,0.833,0.228
					c0.034-0.289,0.052-0.429,0.082-0.745C9.806,15.281,9.638,15.239,9.304,15.154z"/>
				<path class="st1" d="M13.468,17.754c0.364,0.083,0.548,0.124,0.92,0.203c0.026-0.344,0.045-0.504,0.079-0.83
					c-0.37-0.073-0.552-0.11-0.915-0.187C13.516,17.259,13.497,17.416,13.468,17.754z"/>
				<path class="st1" d="M12.742,15.948c-0.03,0.333-0.05,0.485-0.087,0.797c0.355,0.08,0.535,0.119,0.897,0.196
					c0.036-0.319,0.055-0.475,0.084-0.814C13.275,16.057,13.097,16.021,12.742,15.948z"/>
				<path class="st1" d="M11.687,17.321c0.349,0.09,0.525,0.134,0.881,0.221c0.03-0.333,0.05-0.485,0.087-0.797
					c-0.355-0.08-0.531-0.121-0.88-0.204C11.738,16.845,11.718,16.994,11.687,17.321z"/>
				<path class="st1" d="M10.998,15.566c-0.031,0.322-0.05,0.466-0.086,0.763c0.342,0.086,0.515,0.129,0.864,0.212
					c0.037-0.304,0.057-0.453,0.088-0.78C11.514,15.684,11.341,15.645,10.998,15.566z"/>
				<path class="st1" d="M9.981,16.854c0.334,0.097,0.502,0.144,0.843,0.238c0.031-0.322,0.05-0.466,0.086-0.763
					c-0.342-0.086-0.512-0.13-0.848-0.22C10.029,16.398,10.011,16.538,9.981,16.854z"/>
				<path class="st1" d="M14.546,16.297c-0.026,0.344-0.045,0.504-0.079,0.83c0.37,0.073,0.556,0.109,0.933,0.178
					c0.032-0.333,0.05-0.497,0.073-0.846C15.099,16.397,14.913,16.364,14.546,16.297z"/>
				<path class="st1" d="M15.327,18.152c0.38,0.076,0.571,0.113,0.959,0.185c0.02-0.354,0.036-0.522,0.066-0.862
					c-0.385-0.066-0.575-0.1-0.952-0.169C15.368,17.639,15.35,17.803,15.327,18.152z"/>
				<path class="st1" d="M16.418,16.613c-0.02,0.354-0.036,0.522-0.066,0.862c0.385,0.066,0.579,0.098,0.972,0.16
					c0.027-0.347,0.042-0.519,0.058-0.878C16.992,16.701,16.8,16.672,16.418,16.613z"/>
				<path class="st1" d="M17.266,18.514c0.396,0.069,0.596,0.102,0.999,0.167c0.013-0.364,0.027-0.54,0.051-0.894
					c-0.401-0.058-0.599-0.089-0.992-0.151C17.297,17.983,17.282,18.154,17.266,18.514z"/>
				<path class="st1" d="M18.366,16.892c-0.013,0.364-0.027,0.54-0.051,0.894c0.401,0.058,0.603,0.087,1.013,0.141
					c0.021-0.362,0.034-0.541,0.043-0.911C18.965,16.969,18.764,16.944,18.366,16.892z"/>
				<path class="st1" d="M23.574,19.373c0.446,0.046,0.671,0.067,1.126,0.109c0-0.398,0.011-0.598,0.027-0.998
					c-0.455-0.034-0.681-0.052-1.127-0.091C23.585,18.785,23.575,18.981,23.574,19.373z"/>
				<path class="st1" d="M22.526,17.331c-0.001,0.386-0.012,0.578-0.028,0.962c0.436,0.043,0.657,0.063,1.102,0.101
					c0.016-0.392,0.026-0.587,0.026-0.979C23.181,17.383,22.961,17.366,22.526,17.331z"/>
				<path class="st1" d="M21.387,19.125c0.429,0.054,0.645,0.079,1.083,0.129c0.001-0.386,0.012-0.578,0.028-0.962
					c-0.436-0.043-0.652-0.065-1.079-0.112C21.402,18.557,21.391,18.745,21.387,19.125z"/>
				<path class="st1" d="M20.4,17.132c-0.006,0.375-0.018,0.559-0.037,0.927c0.418,0.051,0.629,0.075,1.056,0.122
					c0.017-0.376,0.028-0.564,0.032-0.944C21.025,17.197,20.815,17.176,20.4,17.132z"/>
				<path class="st1" d="M19.285,18.838c0.412,0.061,0.62,0.091,1.041,0.148c0.006-0.375,0.018-0.559,0.037-0.927
					c-0.418-0.051-0.625-0.077-1.034-0.132C19.307,18.289,19.294,18.469,19.285,18.838z"/>
				<path class="st1" d="M24.754,17.487c0,0.398-0.011,0.598-0.027,0.998c0.458,0.034,0.69,0.051,1.161,0.081
					c0.014-0.405,0.024-0.606,0.023-1.016C25.442,17.526,25.21,17.513,24.754,17.487z"/>
				<path class="st1" d="M25.865,19.581c0.472,0.037,0.711,0.054,1.195,0.087c-0.002-0.419,0.007-0.622,0.02-1.031
					c-0.482-0.027-0.721-0.041-1.192-0.072C25.874,18.97,25.864,19.172,25.865,19.581z"/>
				<path class="st1" d="M28.315,17.658c-0.491-0.019-0.734-0.029-1.215-0.05c0.002,0.419-0.007,0.622-0.02,1.03
					c0.482,0.027,0.726,0.039,1.219,0.063C28.309,18.289,28.317,18.086,28.315,17.658z"/>
				<path class="st1" d="M28.282,19.743c0.494,0.028,0.743,0.04,1.245,0.063c-0.003-0.436,0.004-0.639,0.014-1.053
					c-0.501-0.02-0.75-0.03-1.242-0.053C28.287,19.112,28.279,19.315,28.282,19.743z"/>
				<path class="st1" d="M30.814,17.738c-0.508-0.013-0.76-0.021-1.26-0.037c0.003,0.436-0.004,0.639-0.014,1.053
					c0.501,0.02,0.754,0.028,1.262,0.044C30.811,18.384,30.817,18.181,30.814,17.738z"/>
				<path class="st1" d="M35.985,18.885c-0.005,0.413-0.008,0.61-0.004,1.075c0.525,0.002,0.788,0.002,1.313,0
					c-0.004-0.47-0.001-0.665,0.003-1.076C36.772,18.887,36.509,18.887,35.985,18.885z"/>
				<path class="st1" d="M35.989,17.81c-0.524-0.001-0.786-0.002-1.307-0.007c0.004,0.461,0,0.66-0.005,1.074
					c0.522,0.005,0.784,0.007,1.309,0.008C35.989,18.473,35.993,18.275,35.989,17.81z"/>
				<path class="st1" d="M33.367,19.93c0.52,0.01,0.781,0.014,1.304,0.02c-0.004-0.461,0-0.66,0.005-1.074
					c-0.522-0.005-0.783-0.009-1.302-0.017C33.368,19.274,33.363,19.475,33.367,19.93z"/>
				<path class="st1" d="M33.381,17.789c-0.518-0.007-0.777-0.012-1.29-0.022c0.004,0.45-0.002,0.651-0.009,1.066
					c0.514,0.012,0.773,0.018,1.292,0.026C33.38,18.445,33.385,18.244,33.381,17.789z"/>
				<path class="st1" d="M30.791,19.859c0.509,0.019,0.766,0.027,1.281,0.041c-0.004-0.45,0.002-0.652,0.009-1.066
					c-0.514-0.012-0.771-0.019-1.279-0.035C30.794,19.213,30.788,19.415,30.791,19.859z"/>
				<path class="st1" d="M38.61,17.8c-0.524,0.005-0.786,0.007-1.311,0.009c0.004,0.47,0.001,0.665-0.003,1.076
					c0.525-0.002,0.787-0.004,1.312-0.009C38.611,18.467,38.614,18.273,38.61,17.8z"/>
				<path class="st1" d="M38.607,19.952c0.524-0.005,0.786-0.009,1.309-0.018c-0.004-0.478-0.002-0.669,0.001-1.076
					c-0.522,0.009-0.784,0.012-1.308,0.018C38.605,19.285,38.602,19.479,38.607,19.952z"/>
				<path class="st1" d="M41.217,17.756c-0.518,0.012-0.778,0.017-1.3,0.026c0.004,0.478,0.002,0.669-0.001,1.076
					c0.522-0.009,0.782-0.014,1.301-0.026C41.219,18.427,41.221,18.238,41.217,17.756z"/>
				<path class="st1" d="M41.216,19.908c0.519-0.012,0.777-0.02,1.291-0.035c-0.003-0.485-0.002-0.673,0-1.075
					c-0.513,0.016-0.772,0.023-1.29,0.035C41.215,19.237,41.213,19.426,41.216,19.908z"/>
				<path class="st1" d="M43.783,17.679c-0.507,0.019-0.763,0.028-1.276,0.043c0.003,0.485,0.002,0.673,0,1.075
					c0.513-0.016,0.769-0.024,1.276-0.043C43.784,18.353,43.786,18.168,43.783,17.679z"/>
				<path class="st1" d="M48.68,19.58c0.468-0.031,0.7-0.047,1.155-0.08c0-0.514,0-0.692,0-1.088
					c-0.455,0.035-0.687,0.052-1.155,0.085C48.68,18.893,48.68,19.072,48.68,19.58z"/>
				<path class="st1" d="M48.68,17.415c-0.469,0.034-0.706,0.05-1.186,0.08c0.001,0.503,0.001,0.683,0,1.079
					c0.48-0.029,0.718-0.044,1.186-0.077C48.68,18.102,48.681,17.923,48.68,17.415z"/>
				<path class="st1" d="M46.281,19.719c0.491-0.025,0.734-0.038,1.214-0.066c-0.001-0.503-0.001-0.683,0-1.079
					c-0.48,0.029-0.723,0.043-1.214,0.068C46.279,19.039,46.279,19.221,46.281,19.719z"/>
				<path class="st1" d="M46.28,17.565c-0.491,0.026-0.738,0.039-1.238,0.061c0.002,0.493,0.001,0.677,0,1.076
					c0.5-0.022,0.747-0.034,1.238-0.06C46.281,18.245,46.281,18.063,46.28,17.565z"/>
				<path class="st1" d="M43.783,19.829c0.507-0.019,0.759-0.029,1.259-0.051c-0.002-0.493-0.001-0.677,0-1.076
					c-0.5,0.022-0.752,0.033-1.259,0.052C43.782,19.154,43.781,19.34,43.783,19.829z"/>
				<path class="st1" d="M49.835,17.325c0,0.514,0,0.692,0,1.088c0.455-0.035,0.742-0.058,1.247-0.099
					c-0.005-0.406-0.008-0.593-0.013-1.093C50.568,17.264,50.291,17.287,49.835,17.325z"/>
				<path class="st1" d="M51.096,19.406c0.509-0.038,0.765-0.058,1.283-0.097c-0.007-0.486-0.01-0.682-0.017-1.099
					c-0.518,0.041-0.774,0.062-1.279,0.103C51.088,18.719,51.091,18.906,51.096,19.406z"/>
				<path class="st1" d="M52.345,17.112c0.007,0.486,0.01,0.682,0.017,1.099c0.518-0.041,0.781-0.062,1.312-0.103
					c-0.005-0.427-0.008-0.633-0.013-1.106C53.127,17.046,52.864,17.068,52.345,17.112z"/>
				<path class="st1" d="M53.687,19.213c0.529-0.038,0.795-0.056,1.335-0.091c0-0.461-0.001-0.677-0.002-1.116
					c-0.545,0.039-0.815,0.06-1.346,0.101C53.68,18.534,53.682,18.74,53.687,19.213z"/>
				<path class="st1" d="M55.019,16.891c0,0.461,0.001,0.677,0.002,1.116c0.545-0.039,0.822-0.058,1.381-0.094
					c0.006-0.452,0.008-0.679,0.015-1.129C55.85,16.826,55.57,16.847,55.019,16.891z"/>
				<path class="st1" d="M62.189,18.888c0.611,0.004,0.92,0.009,1.548,0.026c0.052-0.423,0.078-0.717,0.13-1.264
					c-0.636,0-0.95,0.003-1.571,0.014C62.253,18.186,62.232,18.464,62.189,18.888z"/>
				<path class="st1" d="M60.847,16.507c-0.033,0.427-0.049,0.69-0.082,1.193c0.604-0.019,0.911-0.026,1.531-0.036
					c0.042-0.523,0.063-0.801,0.107-1.225C61.773,16.462,61.461,16.476,60.847,16.507z"/>
				<path class="st1" d="M59.215,18.921c0.58-0.016,0.873-0.023,1.468-0.03c0.033-0.427,0.049-0.69,0.082-1.193
					c-0.604,0.019-0.903,0.03-1.492,0.056C59.25,18.239,59.239,18.489,59.215,18.921z"/>
				<path class="st1" d="M57.854,16.682c-0.014,0.44-0.021,0.678-0.035,1.145c0.574-0.032,0.865-0.046,1.454-0.072
					c0.023-0.484,0.034-0.734,0.058-1.166C58.732,16.624,58.437,16.643,57.854,16.682z"/>
				<path class="st1" d="M56.388,19.041c0.552-0.03,0.831-0.044,1.397-0.068c0.014-0.44,0.021-0.678,0.035-1.145
					c-0.574,0.032-0.857,0.049-1.417,0.085C56.396,18.364,56.394,18.591,56.388,19.041z"/>
				<path class="st1" d="M63.996,16.385c-0.052,0.423-0.078,0.717-0.13,1.264c0.636,0,0.959,0.002,1.612,0.013
					c0.06-0.574,0.089-0.885,0.15-1.31C64.968,16.361,64.641,16.368,63.996,16.385z"/>
				<path class="st1" d="M65.328,18.972c0.645,0.031,0.973,0.05,1.637,0.097c0.067-0.431,0.1-0.762,0.167-1.365
					c-0.67-0.023-1-0.032-1.653-0.042C65.418,18.235,65.389,18.547,65.328,18.972z"/>
				<path class="st1" d="M67.298,16.339c-0.067,0.431-0.1,0.762-0.167,1.365c0.67,0.023,1.009,0.038,1.696,0.075
					c0.071-0.637,0.106-0.988,0.178-1.429C68.315,16.341,67.974,16.339,67.298,16.339z"/>
				<path class="st1" d="M68.65,19.208c0.684,0.064,1.031,0.101,1.736,0.185c0.074-0.453,0.11-0.827,0.183-1.502
					c-0.705-0.052-1.053-0.074-1.74-0.112C68.757,18.416,68.722,18.768,68.65,19.208z"/>
				<path class="st1" d="M70.75,16.389c-0.074,0.453-0.11,0.827-0.183,1.502c0.705,0.052,1.062,0.082,1.785,0.151
					c0.071-0.716,0.107-1.115,0.179-1.585C71.812,16.424,71.456,16.41,70.75,16.389z"/>
			</g>
		</g>
		<g>
			<polygon class="st0" points="6.997,27.444 0,27.444 0,28.484 2.947,28.484 2.947,39.31 3.987,39.31 3.987,28.484 6.997,28.484 
							"/>
			<polygon class="st0" points="6.575,39.31 7.976,39.31 17.318,29.248 17.318,39.341 18.327,39.341 18.327,27.444 17.472,27.444 
							"/>
			<polygon class="st0" points="28.051,27.413 26.795,27.413 23.792,32.167 20.826,27.413 19.609,27.413 23.145,33.162 
				19.254,39.31 20.509,39.31 23.775,34.166 26.95,39.31 28.167,39.31 24.404,33.183 			"/>
			<rect x="29.136" y="27.413" class="st0" width="1.04" height="11.897"/>
			<polygon class="st1" points="42.597,30.578 38.708,27.444 37.881,27.444 37.881,39.341 38.921,39.341 38.921,29.038 
				42.58,31.968 46.107,29.074 46.107,39.341 47.147,39.341 47.147,27.444 46.317,27.444 			"/>
			<polygon class="st1" points="47.371,39.31 48.772,39.31 58.114,29.248 58.114,39.341 59.123,39.341 59.123,27.444 58.269,27.444 
							"/>
			<path class="st1" d="M66.91,35.649c0.297-0.213,0.568-0.469,0.802-0.76c0.407-0.485,0.695-1.037,0.855-1.641
				c0.156-0.596,0.199-1.197,0.126-1.786c-0.073-0.591-0.262-1.162-0.56-1.697l-0.219,0.121l0.219-0.122
				c-0.3-0.538-0.709-0.999-1.214-1.37c-0.342-0.261-0.733-0.476-1.165-0.638c-0.44-0.166-0.891-0.25-1.338-0.25h-3.908V39.31h1.072
				V28.58l3.103,0.009c0.079,0.016,0.14,0.021,0.154,0.021c0.018,0.002,0.054,0.011,0.13,0.034c0.132,0.04,0.213,0.056,0.221,0.052
				c0.51,0.144,0.973,0.406,1.376,0.78c0.406,0.378,0.708,0.826,0.897,1.326c0.212,0.598,0.278,1.178,0.197,1.725
				c-0.081,0.549-0.276,1.044-0.581,1.472c-0.306,0.43-0.711,0.783-1.203,1.051c-0.497,0.271-1.059,0.427-1.665,0.465l-0.313,0.017
				v1.022h0.331c0.223,0,0.442-0.021,0.651-0.061c0.137-0.026,0.271-0.051,0.4-0.073l2.203,2.892h1.299l-2.467-3.284
				C66.521,35.909,66.721,35.783,66.91,35.649z"/>
			<rect x="69.933" y="27.413" class="st1" width="1.04" height="11.897"/>
			<path class="st1" d="M84.109,32.462V32.46c-0.098-0.546-0.259-1.08-0.479-1.586c-0.223-0.515-0.534-0.991-0.926-1.416
				c-0.582-0.637-1.217-1.128-1.886-1.46c-0.668-0.332-1.354-0.531-2.04-0.593c-0.686-0.062-1.364-0.005-2.026,0.167
				c-0.664,0.172-1.286,0.446-1.849,0.816c-0.564,0.371-1.064,0.83-1.488,1.363c-0.426,0.537-0.754,1.141-0.975,1.794
				c-0.223,0.653-0.321,1.363-0.294,2.11c0.027,0.748,0.22,1.528,0.571,2.317c0.18,0.418,0.421,0.814,0.715,1.179
				c0.291,0.364,0.624,0.695,0.991,0.983c0.364,0.287,0.761,0.535,1.179,0.738c0.425,0.207,0.867,0.353,1.312,0.43
				c0.398,0.077,0.799,0.116,1.19,0.116c0.277,0,0.555-0.02,0.825-0.059c0.649-0.093,1.267-0.274,1.834-0.54
				c0.568-0.264,1.094-0.617,1.559-1.05c0.465-0.432,0.855-0.929,1.16-1.477c0.305-0.549,0.519-1.152,0.635-1.795
				C84.234,33.854,84.231,33.168,84.109,32.462z M82.951,34.692c-0.143,0.567-0.398,1.113-0.763,1.625
				c-0.266,0.382-0.582,0.719-0.941,1c-0.363,0.284-0.763,0.516-1.187,0.686c-0.43,0.172-0.884,0.286-1.35,0.341
				c-0.469,0.053-0.936,0.041-1.392-0.036c-0.647-0.118-1.253-0.35-1.8-0.688c-0.542-0.339-1.006-0.778-1.383-1.313
				c-0.37-0.496-0.624-1.03-0.754-1.588c-0.135-0.572-0.188-1.17-0.157-1.782c0.01-0.382,0.085-0.762,0.224-1.13
				c0.142-0.376,0.328-0.737,0.555-1.073c0.228-0.336,0.493-0.649,0.789-0.931c0.293-0.278,0.606-0.515,0.936-0.705
				c0.438-0.263,0.918-0.448,1.424-0.55c0.322-0.065,0.651-0.098,0.979-0.098c0.186,0,0.371,0.01,0.558,0.032
				c0.628,0.069,1.209,0.24,1.728,0.508c0.521,0.272,0.977,0.614,1.351,1.019c0.379,0.408,0.688,0.875,0.919,1.386
				c0.23,0.509,0.369,1.047,0.413,1.599C83.144,33.55,83.093,34.122,82.951,34.692z"/>
		</g>
	</g>
	<g>
		<polygon class="st1" points="7.306,51.798 5.946,51.798 1.096,56.231 1.096,48.461 0,48.461 0,59.922 1.096,59.922 1.096,57.606 
			3.012,55.845 6.286,59.922 7.63,59.922 3.831,55.119 		"/>
		<path class="st1" d="M12.277,51.736c-2.379,0-4.14,1.714-4.14,4.124S9.898,60,12.277,60s4.124-1.73,4.124-4.14
			S14.656,51.736,12.277,51.736z M12.277,59.027c-1.73,0-3.027-1.267-3.027-3.166c0-1.9,1.297-3.166,3.027-3.166
			c1.73,0,3.012,1.266,3.012,3.166C15.289,57.76,14.007,59.027,12.277,59.027z"/>
		<path class="st1" d="M19.689,53.389v-1.591h-1.05v8.125h1.096v-4.14c0-1.915,1.035-2.997,2.734-2.997
			c0.077,0,0.17,0.016,0.262,0.016v-1.065C21.233,51.736,20.198,52.308,19.689,53.389z"/>
		<path class="st1" d="M27.997,52.694c0.942,0,1.807,0.386,2.364,1.205l0.818-0.556c-0.649-1.066-1.807-1.606-3.182-1.606
			c-2.425,0-4.186,1.699-4.186,4.124S25.572,60,27.997,60c1.375,0,2.533-0.556,3.182-1.606l-0.818-0.556
			c-0.556,0.819-1.421,1.189-2.364,1.189c-1.776,0-3.073-1.251-3.073-3.166C24.924,53.96,26.221,52.694,27.997,52.694z"/>
		<path class="st1" d="M39.548,56.061c0,1.853-1.066,2.95-2.764,2.95c-1.545,0-2.441-0.881-2.441-2.611v-4.603h-1.097v4.712
			c0,2.332,1.36,3.491,3.429,3.491c1.297,0,2.348-0.571,2.919-1.56v1.482h1.051v-8.125h-1.097V56.061z"/>
		<rect x="43.717" y="48.461" class="st1" width="1.096" height="11.461"/>
		<path class="st1" d="M50.713,51.736c-1.282,0-2.487,0.402-3.306,1.096l0.495,0.819c0.664-0.587,1.652-0.958,2.703-0.958
			c1.514,0,2.301,0.757,2.301,2.147v0.494h-2.58c-2.332,0-3.135,1.051-3.135,2.302c0,1.406,1.127,2.363,2.966,2.363
			c1.344,0,2.302-0.51,2.796-1.344v1.266h1.051v-5.035C54.002,52.786,52.813,51.736,50.713,51.736z M52.905,57.482
			c-0.433,1.065-1.344,1.652-2.58,1.652c-1.297,0-2.054-0.587-2.054-1.529c0-0.834,0.509-1.452,2.085-1.452h2.549V57.482z"/>
		<rect x="56.378" y="55.258" class="st1" width="4.047" height="0.958"/>
		<path class="st1" d="M65.722,59.058c-0.911,0-1.406-0.526-1.406-1.483v-4.85h2.472v-0.927h-2.472v-1.776h-1.097v1.776h-1.451
			v0.927h1.451v4.912c0,1.498,0.85,2.363,2.379,2.363c0.633,0,1.282-0.185,1.714-0.571l-0.385-0.788
			C66.617,58.918,66.169,59.058,65.722,59.058z"/>
		<path class="st1" d="M72.145,51.736c-1.282,0-2.487,0.402-3.305,1.096l0.494,0.819c0.664-0.587,1.653-0.958,2.703-0.958
			c1.514,0,2.302,0.757,2.302,2.147v0.494h-2.58c-2.333,0-3.136,1.051-3.136,2.302c0,1.406,1.128,2.363,2.966,2.363
			c1.344,0,2.301-0.51,2.795-1.344v1.266h1.051v-5.035C75.436,52.786,74.246,51.736,72.145,51.736z M74.339,57.482
			c-0.433,1.065-1.344,1.652-2.58,1.652c-1.298,0-2.055-0.587-2.055-1.529c0-0.834,0.51-1.452,2.086-1.452h2.549V57.482z"/>
		<polygon class="st1" points="84.654,51.798 83.449,51.798 81.008,54.98 78.568,51.798 77.333,51.798 80.391,55.752 77.178,59.922 
			78.414,59.922 81.008,56.524 83.588,59.922 84.84,59.922 81.596,55.752 		"/>
		<rect x="86.661" y="51.798" class="st1" width="1.096" height="8.125"/>
		<path class="st1" d="M87.216,48.461c-0.447,0-0.803,0.355-0.803,0.772c0,0.433,0.356,0.788,0.803,0.788
			c0.464,0,0.803-0.355,0.803-0.803C88.019,48.801,87.664,48.461,87.216,48.461z"/>
		<path class="st1" d="M90.922,58.316c-0.447,0-0.818,0.356-0.818,0.834c0,0.479,0.371,0.85,0.818,0.85
			c0.448,0,0.834-0.371,0.834-0.85C91.756,58.672,91.37,58.316,90.922,58.316z"/>
		<path class="st1" d="M97.223,52.694c0.943,0,1.807,0.386,2.363,1.205l0.819-0.556c-0.649-1.066-1.807-1.606-3.182-1.606
			c-2.425,0-4.185,1.699-4.185,4.124S94.798,60,97.223,60c1.375,0,2.533-0.556,3.182-1.606l-0.819-0.556
			c-0.556,0.819-1.42,1.189-2.363,1.189c-1.776,0-3.073-1.251-3.073-3.166C94.15,53.96,95.447,52.694,97.223,52.694z"/>
		<path class="st1" d="M105.732,51.736c-2.379,0-4.14,1.714-4.14,4.124s1.761,4.14,4.14,4.14s4.124-1.73,4.124-4.14
			S108.111,51.736,105.732,51.736z M105.732,59.027c-1.731,0-3.027-1.267-3.027-3.166c0-1.9,1.296-3.166,3.027-3.166
			c1.73,0,3.012,1.266,3.012,3.166C108.744,57.76,107.462,59.027,105.732,59.027z"/>
		<path class="st1" d="M122.226,51.736c-1.467,0-2.626,0.664-3.212,1.714c-0.495-1.143-1.545-1.714-2.889-1.714
			c-1.359,0-2.41,0.571-2.981,1.544v-1.483h-1.051v8.125h1.097V55.66c0-1.854,1.066-2.935,2.718-2.935
			c1.482,0,2.348,0.88,2.348,2.595v4.602h1.097V55.66c0-1.854,1.05-2.935,2.718-2.935c1.468,0,2.332,0.88,2.332,2.595v4.602h1.096
			v-4.711C125.5,52.879,124.203,51.736,122.226,51.736z"/>
	</g>
	<rect y="44.797" class="st1" width="125.5" height="0.996"/>
</g>
</svg>
